<?xml version="1.0" encoding="utf-8"?>
<!-- Generator: Adobe Illustrator 21.1.0, SVG Export Plug-In . SVG Version: 6.00 Build 0)  -->
<svg version="1.1" id="Layer_1" xmlns="http://www.w3.org/2000/svg" xmlns:xlink="http://www.w3.org/1999/xlink" x="0px" y="0px"
	 viewBox="0 0 205 270" style="enable-background:new 0 0 205 270;" xml:space="preserve">
<style type="text/css">
	.st0{fill:none;stroke:#444444;stroke-width:0.25;stroke-miterlimit:10;}
</style>
<path class="st0" d="M172.9,108.6c-3.6-9.9-9.4-19.2-17.4-27.1s-17.2-13.7-27.1-17.4c-26.6-9.8-57.6-4-78.9,17.4
	s-27.1,52.3-17.4,78.9c3.6,9.9,9.4,19.2,17.4,27.1s17.2,13.7,27.1,17.4c26.6,9.8,57.6,4,78.9-17.4S182.6,135.2,172.9,108.6z"/>
<line class="st0" x1="103" y1="10" x2="103" y2="260"/>
<line class="st0" x1="103" y1="10" x2="103" y2="260"/>
<path class="st0" d="M102.1,209.5c-0.1,30.4-0.1,50,0,50s0.2-19.6,0.3-50c0-2.2,0-4.5,0-6.9c0.1-19.6,0.2-43,0.2-68.1
	s0.1-48.5,0.2-68.1c0-2.4,0-4.7,0-6.9c0.1-30.4,0.1-50,0-50c0,0-0.2,19.7-0.3,50"/>
<path class="st0" d="M101.7,209.5c-0.2,30.4-0.2,50-0.1,50s0.4-19.6,0.7-50c0-2.2,0-4.5,0.1-6.9c0.2-19.6,0.4-43,0.6-68.1
	c0.2-25.1,0.3-48.5,0.4-68.1c0-2.4,0-4.6,0-6.9c0.2-30.4,0.2-50,0.1-50s-0.4,19.6-0.7,50"/>
<path class="st0" d="M100.9,209.5c-0.3,30.4-0.4,50-0.2,50s0.7-19.6,1.3-50c0-2.2,0.1-4.5,0.1-6.9c0.4-19.6,0.7-43,1.1-68.1
	c0.4-25.1,0.7-48.5,0.9-68.1c0-2.4,0.1-4.6,0.1-6.9c0.3-30.4,0.4-50,0.2-50c-0.2,0-0.7,19.6-1.3,50"/>
<path class="st0" d="M99.7,209.4c-0.5,30.4-0.7,50-0.3,50c0.4,0,1.2-19.6,2.2-50c0.1-2.2,0.1-4.5,0.2-6.9c0.6-19.6,1.3-43,1.9-68.1
	c0.6-25.1,1.1-48.5,1.5-68.1c0-2.4,0.1-4.6,0.1-6.9c0.5-30.4,0.7-50,0.3-50c-0.4,0-1.2,19.6-2.2,50"/>
<path class="st0" d="M104,59.5c1.6-30.3,2.9-50,3.5-49.9c0.6,0,0.4,19.7-0.5,50.1c-0.1,2.2-0.1,4.5-0.2,6.9
	c-0.6,19.6-1.4,42.9-2.4,68s-2,48.5-3,68c-0.1,2.3-0.2,4.6-0.3,6.9c-1.6,30.3-2.9,50-3.5,49.9c-0.6,0-0.4-19.7,0.5-50.1"/>
<path class="st0" d="M95.8,209.2c-1.3,30.4-1.6,50.1-0.7,50.1c0.9,0.1,2.9-19.5,5.3-49.8c0.2-2.2,0.3-4.5,0.5-6.8
	c1.5-19.5,3-42.9,4.5-67.9s2.7-48.4,3.6-68c0.1-2.3,0.2-4.6,0.3-6.8c1.3-30.4,1.6-50.1,0.7-50.1c-0.9-0.1-2.9,19.5-5.3,49.8"/>
<path class="st0" d="M92.9,208.9c-1.8,30.4-2.3,50.1-1,50.2c1.3,0.1,4.2-19.4,7.5-49.6c0.2-2.2,0.5-4.5,0.7-6.8
	c2.1-19.5,4.3-42.8,6.4-67.8c2.1-25,3.9-48.3,5.1-67.9c0.1-2.3,0.3-4.6,0.4-6.8c1.8-30.4,2.3-50.1,1-50.2
	c-1.3-0.1-4.2,19.4-7.5,49.6"/>
<path class="st0" d="M89.4,208.3c-2.5,30.4-3.2,50.1-1.4,50.3c1.8,0.2,5.7-19.2,10.2-49.3c0.3-2.2,0.7-4.4,1-6.7
	c2.8-19.4,5.9-42.6,8.8-67.5s5.3-48.2,7-67.7c0.2-2.3,0.4-4.6,0.6-6.7c2.5-30.4,3.2-50.1,1.4-50.3c-1.8-0.2-5.7,19.2-10.2,49.3"/>
<path class="st0" d="M85.1,207.4c-3.4,30.3-4.3,50.2-1.9,50.6c2.4,0.4,7.6-18.8,13.6-48.7c0.4-2.1,0.9-4.3,1.3-6.5
	c3.8-19.2,7.8-42.3,11.7-67.1c3.9-24.8,7-48,9.3-67.5c0.3-2.3,0.5-4.5,0.8-6.6c3.4-30.3,4.3-50.2,1.9-50.6s-7.6,18.8-13.6,48.7"/>
<path class="st0" d="M80.1,206c-4.4,30.3-5.6,50.3-2.5,50.9c3.1,0.6,9.8-18.2,17.6-47.9c0.5-2,1.1-4.1,1.6-6.3
	c4.9-19,10.1-41.8,15.1-66.4c5-24.6,9.1-47.6,12.1-67c0.3-2.2,0.7-4.3,1-6.4c4.4-30.3,5.6-50.3,2.5-50.9
	c-3.1-0.6-9.8,18.2-17.6,47.9"/>
<path class="st0" d="M74.2,203.9c-5.6,30.3-7.2,50.5-3.3,51.5c3.9,1,12.4-17.4,22.3-46.5c0.7-1.9,1.3-3.9,2-5.9
	c6.2-18.6,12.8-41.1,19.1-65.4s11.6-47.1,15.3-66.4c0.4-2.1,0.8-4.1,1.2-6.2c5.6-30.3,7.2-50.5,3.3-51.5c-3.9-1-12.4,17.4-22.3,46.5
	"/>
<path class="st0" d="M67.6,200.9c-7.1,30.3-9.1,50.7-4.3,52.3c4.8,1.6,15.3-16.1,27.7-44.6c0.8-1.8,1.5-3.6,2.3-5.4
	c7.6-18.1,15.8-40,23.7-63.9c7.9-23.8,14.4-46.3,19-65.4c0.5-2,0.9-3.9,1.4-5.7c7.1-30.3,9.1-50.7,4.3-52.3
	c-4.8-1.6-15.3,16.1-27.7,44.6"/>
<path class="st0" d="M60.4,196.5c-8.8,30.2-11.5,51.1-5.7,53.5c5.8,2.4,18.7-14.3,33.8-41.8c0.8-1.5,1.7-3.1,2.6-4.7
	c9.3-17.4,19.2-38.5,28.9-61.7s17.5-45.2,23.3-64.1c0.5-1.7,1-3.5,1.5-5.1c8.8-30.2,11.5-51.1,5.7-53.5
	c-5.8-2.4-18.7,14.3-33.8,41.8"/>
<path class="st0" d="M53.6,191.4c-10.6,30.1-14,51.5-7.3,54.8c6.7,3.4,21.8-12.1,39.7-38.5c0.9-1.3,1.7-2.6,2.6-3.9
	c10.8-16.5,22.5-36.8,33.8-59.2s20.6-43.9,27.4-62.4c0.5-1.5,1.1-3,1.6-4.4c10.6-30.1,14-51.5,7.3-54.8
	c-6.7-3.4-21.8,12.1-39.7,38.5"/>
<path class="st0" d="M121.1,61.9c20.1-25.3,37.2-39.5,44.6-35.2c7.4,4.3,3.3,26.2-8.9,56.1c-0.5,1.2-1,2.5-1.5,3.7
	c-7.7,18.2-18.2,39.1-30.9,60.8C111.7,169,98.5,188.4,86.4,204c-0.8,1.1-1.7,2.1-2.5,3.2c-20.1,25.3-37.2,39.5-44.6,35.2
	c-7.4-4.3-3.3-26.2,8.9-56.1"/>
<path class="st0" d="M44,181.4c-13.7,29.8-18.4,52.1-10.4,57.3c7.9,5.2,26.6-7.8,48.7-32.1c0.7-0.8,1.5-1.6,2.2-2.5
	c13.2-14.8,27.5-33.4,41.3-54.3c13.9-20.9,25.4-41.4,33.8-59.3c0.5-1,1-2,1.4-3.1c13.7-29.8,18.4-52.1,10.4-57.3
	c-7.9-5.2-26.6,7.8-48.7,32.1"/>
<path class="st0" d="M40.7,177c-14.9,29.7-20.3,52.4-11.9,58.5c8.3,6.1,28.3-5.9,52-29.2c0.6-0.6,1.3-1.3,1.9-1.9
	c14-14,29.3-31.8,44.1-52.1S154,112,163,94.4c0.4-0.8,0.8-1.6,1.2-2.4c14.9-29.7,20.3-52.4,11.9-58.5c-8.3-6.1-28.3,5.9-52,29.2"/>
<path class="st0" d="M125.3,63.1c25-22.4,46.1-33.4,54.8-26.6c8.6,6.8,2.7,29.9-13.3,59.4c-0.3,0.6-0.7,1.2-1,1.8
	c-9.6,17.4-22.6,36.9-38.2,56.6S96,191.2,81.3,204.5c-0.5,0.5-1,0.9-1.6,1.4c-25,22.4-46.1,33.4-54.8,26.6
	c-8.6-6.8-2.7-29.9,13.3-59.4"/>
<path class="st0" d="M36.4,169.8c-16.9,29.4-23.3,52.8-14.4,60.2c8.9,7.5,30.8-2.8,56.9-24.4c0.4-0.3,0.8-0.7,1.2-1
	c15.2-12.8,31.8-29.4,48-48.6c16.2-19.2,29.7-38.4,39.8-55.5c0.3-0.5,0.5-0.9,0.8-1.4c16.9-29.4,23.3-52.8,14.4-60.2
	c-8.9-7.5-30.8,2.8-56.9,24.4"/>
<path class="st0" d="M126.8,63.6c27-21,49.6-30.6,58.6-22.6c9,8,2.2,31.6-15.4,60.9c-0.2,0.3-0.4,0.7-0.6,1
	c-10.4,17-24.3,35.9-41,54.6c-16.7,18.8-33.7,34.9-49.4,47.2c-0.3,0.2-0.6,0.5-0.9,0.7c-27,21-49.6,30.6-58.6,22.6
	c-9-8-2.2-31.6,15.4-60.9"/>
<path class="st0" d="M34,164.9c-18.3,29.2-25.4,53-16.3,61.4c9.1,8.4,32.3-0.6,59.9-21.1c0.2-0.2,0.4-0.3,0.6-0.5
	c16-11.9,33.4-27.7,50.4-46.1c17-18.5,31.3-37.1,42-53.9c0.1-0.2,0.3-0.4,0.4-0.7c18.3-29.2,25.4-53,16.3-61.4
	c-9.1-8.4-32.3,0.6-59.9,21.1"/>
<path class="st0" d="M33.2,163.2c-18.7,29.1-26.1,53.1-16.9,61.8c9.2,8.8,32.8,0.2,60.9-20c0.1-0.1,0.3-0.2,0.4-0.3
	c16.2-11.6,33.9-27.1,51.2-45.3s31.9-36.6,42.7-53.4c0.1-0.1,0.2-0.3,0.3-0.4c18.7-29.1,26.1-53.1,16.9-61.8
	c-9.2-8.8-32.8-0.2-60.9,20"/>
<path class="st0" d="M32.8,162c-19.1,29.1-26.6,53.1-17.4,62.1c9.3,9,33.1,0.7,61.6-19.1c0.1-0.1,0.2-0.1,0.2-0.2
	c16.3-11.4,34.2-26.7,51.7-44.7c17.5-18,32.2-36.3,43.2-53c0-0.1,0.1-0.1,0.1-0.2c19.1-29.1,26.6-53.1,17.4-62.1
	c-9.3-9-33.1-0.7-61.6,19.1"/>
<path class="st0" d="M32.4,161.2c-19.3,29-27,53.2-17.7,62.3c9.3,9.2,33.3,1.1,62-18.6c0,0,0.1-0.1,0.1-0.1
	c16.4-11.3,34.4-26.4,52.1-44.3s32.5-36.1,43.5-52.7c0,0,0-0.1,0.1-0.1c19.3-29,27-53.2,17.7-62.3c-9.3-9.2-33.3-1.1-62,18.6"/>
<path class="st0" d="M32.2,160.7c-19.4,29-27.2,53.2-17.9,62.4c9.3,9.3,33.5,1.3,62.3-18.2c0,0,0,0,0,0c16.5-11.2,34.6-26.2,52.3-44
	c17.7-17.8,32.6-36,43.7-52.5c0,0,0,0,0,0c19.4-29,27.2-53.2,17.9-62.4c-9.3-9.3-33.5-1.3-62.3,18.2"/>
<path class="st0" d="M32.2,160.5c-19.5,29-27.3,53.2-18,62.5c9.3,9.3,33.5,1.4,62.4-18.1c0,0,0,0,0,0c16.5-11.2,34.6-26.1,52.4-43.9
	c17.7-17.8,32.7-35.9,43.8-52.5c0,0,0,0,0,0c19.5-29,27.3-53.2,18-62.5c-9.3-9.3-33.5-1.4-62.4,18.1"/>
<path class="st0" d="M32.1,160.4L32.1,160.4c-19.5,29-27.3,53.2-18,62.5c9.3,9.3,33.5,1.5,62.5-18c0,0,0,0,0,0
	c16.6-11.1,34.7-26.1,52.4-43.9c17.8-17.8,32.7-35.9,43.9-52.4c0,0,0,0,0,0c19.5-29,27.3-53.2,18-62.5c-9.3-9.3-33.5-1.5-62.5,18
	l0,0"/>
<path class="st0" d="M128.4,64.1L128.4,64.1c29-19.5,53.2-27.3,62.5-18c9.3,9.3,1.5,33.5-18,62.5c0,0,0,0,0,0
	c-11.1,16.6-26.1,34.7-43.9,52.4c-17.8,17.8-35.9,32.7-52.4,43.9c0,0,0,0,0,0c-29,19.5-53.2,27.3-62.5,18c-9.3-9.3-1.5-33.5,18-62.5
	l0,0"/>
<rect y="32" class="st0" width="205" height="205"/>
</svg>
